<svg xmlns="http://www.w3.org/2000/svg" viewBox="0 0 120 86" fill="none">
  <!-- envelope body -->
  <rect x="4" y="18" width="112" height="64" rx="4" fill="#ede8dc" stroke="#c8b99a" stroke-width="1.5"/>
  <!-- envelope flap top -->
  <path d="M4 18 L60 58 L116 18" stroke="#c8b99a" stroke-width="1.5" stroke-linejoin="round" fill="none"/>
  <!-- bottom fold lines -->
  <path d="M4 82 L46 48" stroke="#c8b99a" stroke-width="1" opacity="0.5"/>
  <path d="M116 82 L74 48" stroke="#c8b99a" stroke-width="1" opacity="0.5"/>
  <!-- wax seal circle -->
  <circle cx="60" cy="62" r="14" fill="#7a2030"/>
  <!-- wax seal heart -->
  <path d="M60 57 C60 55.5 58.5 53.5 56 53.5 C53.5 53.5 51.5 55.5 51.5 58 C51.5 61 55.5 64.5 60 68 C64.5 64.5 68.5 61 68.5 58 C68.5 55.5 66.5 53.5 64 53.5 C61.5 53.5 60 55.5 60 57Z" fill="#5a1522"/>
  <!-- leaf accent on seal -->
  <path d="M56 60 Q60 56 64 60" stroke="#9b4040" stroke-width="1" fill="none" stroke-linecap="round"/>
  <line x1="60" y1="56" x2="60" y2="62" stroke="#9b4040" stroke-width="0.8" stroke-linecap="round"/>
</svg>
